# xmcd
#
# Track frame offsets:
#	150
#	19363
#	37810
#	62288
#	71593
#	84870
#	98901
#	116490
#	130041
#	146715
#	168029
#
# Disc length: 2685 seconds
#
# Revision: 1
# Processed by: cddbd v1.4PL0 Copyright (c) Steve Scherf et al.
# Submitted via: audiograbber 1.81.03
#
DISCID=830a7b0b
DTITLE=Crosby,Stills, Nash and Young - So Far
DYEAR=1974
DGENRE=
TTITLE0=Dèja Vú
TTITLE1=Helpless Hoping
TTITLE2=Wooden Ships
TTITLE3=Teach Your Children
TTITLE4=Ohio
TTITLE5=Find The Cost Of Freedom
TTITLE6=Woodstock
TTITLE7=Our House
TTITLE8=Helpless
TTITLE9=Guinnevere
TTITLE10=Suite: Judy Blue Eyes
EXTD=
EXTT0=
EXTT1=
EXTT2=
EXTT3=
EXTT4=
EXTT5=
EXTT6=
EXTT7=
EXTT8=
EXTT9=
EXTT10=
PLAYORDER=
